<svg width="24" height="24" viewBox="0 0 24 24" fill="none" xmlns="http://www.w3.org/2000/svg">
<path d="M4.85387 15.8543C4.93772 15.7702 5.01598 15.6811 5.08828 15.5877C5.28514 15.3334 5.43782 15.0467 5.53899 14.7396L5.98677 13.3629C6.02423 13.2568 6.09372 13.1649 6.18564 13.0999C6.27756 13.0349 6.38739 13 6.5 13C6.61261 13 6.72244 13.0349 6.81436 13.0999C6.89637 13.1579 6.96052 13.2373 7 13.3291C7.00477 13.3402 7.00919 13.3514 7.01323 13.3629L7.46101 14.7396C7.60025 15.1582 7.83528 15.5385 8.1474 15.8504C8.45953 16.1623 8.84016 16.3972 9.25903 16.5363L10.6368 16.9837C10.743 17.0212 10.835 17.0906 10.9 17.1824C10.9651 17.2743 11 17.384 11 17.4966C11 17.6091 10.9651 17.7188 10.9 17.8107C10.835 17.9025 10.743 17.972 10.6368 18.0094L10.6093 18.0163L9.23148 18.4637C8.8126 18.6028 8.43198 18.8377 8.11985 19.1496C7.80772 19.4615 7.5727 19.8418 7.43346 20.2604L6.98567 21.6371C6.94821 21.7432 6.87873 21.8351 6.78681 21.9001C6.69489 21.9651 6.58505 22 6.47244 22C6.35984 22 6.25 21.9651 6.15808 21.9001C6.06616 21.8351 5.99668 21.7432 5.95922 21.6371L5.51143 20.2604L5.5 20.2263C5.36226 19.824 5.13572 19.4578 4.837 19.1546C4.52987 18.843 4.15474 18.6065 3.74097 18.4637L2.36317 18.0163C2.25698 17.9788 2.16502 17.9094 2.09998 17.8176C2.03493 17.7257 2 17.616 2 17.5034C2 17.3909 2.03493 17.2812 2.09998 17.1893C2.16502 17.0975 2.25698 17.028 2.36317 16.9906L3.74097 16.5432C4.16058 16.4033 4.54169 16.1675 4.85387 15.8543ZM20.25 17C20.6642 17 21 16.6642 21 16.25V11.25C21 10.8358 20.6642 10.5 20.25 10.5C19.8358 10.5 19.5 10.8358 19.5 11.25V14.4393L13.5303 8.4697C13.2374 8.1768 12.7626 8.1768 12.4697 8.4697L10.25 10.6893L4.28033 4.7197C3.98744 4.4268 3.51256 4.4268 3.21967 4.7197C2.92678 5.0126 2.92678 5.4874 3.21967 5.7803L9.71967 12.2803C10.0126 12.5732 10.4874 12.5732 10.7803 12.2803L13 10.0607L18.4394 15.5L15.25 15.5C14.8358 15.5 14.5 15.8358 14.5 16.25C14.5 16.6642 14.8358 17 15.25 17L20.25 17ZM20.0175 6.0354L20.7829 5.7868L20.7982 5.783C20.8572 5.7622 20.9083 5.7236 20.9445 5.6726C20.9806 5.6216 21 5.5606 21 5.4981C21 5.4356 20.9806 5.3746 20.9445 5.3236C20.9083 5.2725 20.8572 5.234 20.7982 5.2132L20.0328 4.9646C19.8001 4.8873 19.5886 4.7568 19.4152 4.5836C19.2418 4.4103 19.1113 4.199 19.0339 3.9665L18.7851 3.2016C18.7643 3.1427 18.7257 3.0916 18.6746 3.0555C18.6236 3.0194 18.5626 3 18.5 3C18.4374 3 18.3764 3.0194 18.3254 3.0555C18.2743 3.0916 18.2357 3.1427 18.2149 3.2016L17.9661 3.9665C17.8893 4.1997 17.7589 4.4118 17.5855 4.5857C17.412 4.7597 17.2003 4.8907 16.9672 4.9684L16.2018 5.217C16.1428 5.2378 16.0917 5.2764 16.0555 5.3274C16.0194 5.3784 16 5.4394 16 5.5019C16 5.5644 16.0194 5.6254 16.0555 5.6764C16.0917 5.7275 16.1428 5.766 16.2018 5.7868L16.9672 6.0354C17.1971 6.1147 17.4055 6.2461 17.5761 6.4192C17.7467 6.5924 17.875 6.8026 17.9508 7.0335L18.1996 7.7984C18.2204 7.8573 18.259 7.9084 18.31 7.9445C18.3611 7.9806 18.4221 8 18.4847 8C18.5473 8 18.6083 7.9806 18.6593 7.9445C18.7104 7.9084 18.749 7.8573 18.7698 7.7984L19.0186 7.0335C19.0959 6.801 19.2265 6.5897 19.3999 6.4164C19.5733 6.2432 19.7848 6.1127 20.0175 6.0354Z" fill="#C6AC8F"/>
</svg>
